# xmcd
#
# Track frame offsets:
#	150
#	18892
#	34272
#	51637
#	72119
#	89821
#	103589
#	115121
#	137676
#	157980
#	175286
#	191011
#
# Disc length: 2704 seconds
#
# Revision: 1
# Processed by: cddbd v1.5.2PL0 Copyright (c) Steve Scherf et al.
# Submitted via: audiograbber 1.83.01
#
DISCID=a50a8e0c
DTITLE=Kathy Mattea - Calling Me Home
DYEAR=2012
DGENRE=Country
TTITLE0=A Far Cry
TTITLE1=Gone, Gonna Rise Again
TTITLE2=The Wood Thrush's Song
TTITLE3=West Virginia Mine Disaster
TTITLE4=The Maple's Lament
TTITLE5=Hello, My Name Is Coal
TTITLE6=Calling Me Home
TTITLE7=Black Waters
TTITLE8=West Virginia, My Home
TTITLE9=Agate Hill
TTITLE10=Now Is The Cool Of The Day
TTITLE11=Requiem For A Mountain
EXTD=
EXTT0=
EXTT1=
EXTT2=
EXTT3=
EXTT4=
EXTT5=
EXTT6=
EXTT7=
EXTT8=
EXTT9=
EXTT10=
EXTT11=
PLAYORDER=
